<?xml version="1.0" encoding="utf-8"?>
<!-- Generator: Adobe Illustrator 18.0.0, SVG Export Plug-In . SVG Version: 6.00 Build 0)  -->
<!DOCTYPE svg PUBLIC "-//W3C//DTD SVG 1.0//EN" "http://www.w3.org/TR/2001/REC-SVG-20010904/DTD/svg10.dtd">
<svg version="1.0" id="Layer_1" xmlns="http://www.w3.org/2000/svg" xmlns:xlink="http://www.w3.org/1999/xlink" x="0px" y="0px"
	 viewBox="0 0 176.2 175.5" enable-background="new 0 0 176.2 175.5" xml:space="preserve">
<g>
	<path d="M167.2,88c0-18.5,0-37,0-55.5c0-2.8,0.1-5.6-0.8-8.4c-3-10-10.8-15.5-22.8-15.5C107.2,8.5,70.7,9,34.2,8.3
		C18.7,8.1,8.7,18.4,9,33.6c0.5,36.1,0.6,72.3,0,108.5c-0.2,14.2,8.5,25.3,25.3,25.1c36.3-0.4,72.6-0.1,109-0.1
		c15.6,0,23.9-8.4,24-24.1C167.3,124.6,167.2,106.3,167.2,88z M161.2,143.4c0,11.8-5.6,17.6-17.4,17.6c-37.3,0.1-74.6,0.1-112,0
		c-10.3,0-16.6-6.1-16.6-16.4c-0.1-38-0.1-76,0-114c0-9.6,6.3-16,15.9-16.1c38.2-0.1,76.3-0.1,114.5,0c9.4,0,15.5,6.4,15.6,15.8
		c0.1,19.2,0,38.3,0,57.5C161.2,106.4,161.2,124.9,161.2,143.4z"/>
	<path d="M100.3,145.5c0.1-2.7-0.4-5.8,3.3-5.7c3.4,0.2,3.2,3.2,3.1,5.7c-0.1,2.6,0.4,6.2-3.4,6C99.6,151.4,100.5,147.8,100.3,145.5
		z"/>
	<path d="M121.6,146.6c-0.1,1.9,0.6,4.9-2.8,5c-3.7,0.1-3.2-3.1-3.4-5.5c-0.1-1,0-2,0-3c0.2-2.1,1.3-3.6,3.4-3.4
		c1.9,0.2,2.8,1.6,2.7,3.5C121.5,144.3,121.6,145.3,121.6,146.6z"/>
	<path d="M39.5,145.6c0.1-1.2,0.1-2.3,0.3-3.5c0.3-1.8,1.7-2.7,3.3-2.3c3.7,1,2.4,4.3,2.5,6.7c0.1,2.1,0.4,4.6-2.7,5
		c-1.8,0.2-2.9-0.8-3.2-2.5c-0.2-1.1,0-2.3,0-3.5C39.6,145.6,39.5,145.6,39.5,145.6z"/>
	<path d="M91.2,145.9c-0.4,2.4,1,5.9-3.1,5.7c-3.6-0.2-3.1-3.3-3-5.7c0-2.6-0.6-6.1,3.2-6C92.4,139.9,90.7,143.8,91.2,145.9z"/>
	<path d="M152.1,146.1c-0.1,2.1,0.8,5.3-2.9,5.4c-3.5,0-3.3-3.1-3.2-5.5c0.1-2.5-0.7-6.1,3-6.2C152.8,139.8,152,143.3,152.1,146.1z"
		/>
	<path d="M69.9,145.8c0.2-2.7-0.5-6,3-6c3.3,0,3.2,3.1,3.2,5.6c0,0.7,0,1.3,0,2c0.1,2.2-0.7,4.3-3.1,4.2
		C69,151.3,70.3,147.9,69.9,145.8z"/>
	<path d="M30.3,146.1c-0.2,2.1,0.8,5.4-3,5.4c-3.4,0-3.3-3.1-3.2-5.6c0.1-2.5-0.6-6.1,3.1-6.1C31.1,139.8,30.2,143.4,30.3,146.1z"/>
	<path d="M136.9,145.8c0,1.1,0.1,2.3,0,3.4c-0.3,2.1-1.7,2.8-3.6,2.4c-3.3-0.7-2.4-3.5-2.4-5.6c0-2.5-0.9-5.6,2.9-6.3
		c1.7-0.3,2.7,0.9,3,2.6c0.2,1.1,0.1,2.3,0.2,3.4C137,145.8,136.9,145.8,136.9,145.8z"/>
	<path d="M60.9,145.6c-0.3,2.6,0.7,6.2-3.4,6c-3.8-0.2-2.7-3.9-2.9-6.3c-0.2-2.6,0.2-5.6,3.5-5.5C61.8,139.9,60.6,143.4,60.9,145.6z
		"/>
	<path d="M90.1,45.4c-21.7-1.3-43.6,15.8-44.3,41.4c-0.6,21.2,15.3,42.3,40.8,43.4c21.9,0.9,43.3-15.1,44.1-41.7
		C131.3,67.2,115,46.5,90.1,45.4z M88.1,124.3c-19.6,0.5-36-16.2-36.4-36.6c-0.3-19.6,16.3-36.2,36.5-36.5
		c19.7-0.2,36.4,16.1,36.3,36.6C124.5,108.1,109.4,123.8,88.1,124.3z"/>
	<path d="M137.1,30.2c-5.3-0.1-9.1,3.7-9.1,8.9c0,4.9,3.8,8.8,8.7,8.9c5.1,0.1,9.2-3.9,9.2-9C145.8,34,142.1,30.3,137.1,30.2z
		 M136.8,43.4c-2.6-0.1-4.3-1.8-4.2-4.5c0.1-2.4,1.7-4.1,4.1-4.1c2.6,0,4.2,1.5,4.5,4.3C140.8,41.5,139.6,43.5,136.8,43.4z"/>
	<path d="M88.6,57.4C71.8,57.3,58,70.8,57.9,87.6c-0.1,16.8,13.5,30.6,30.1,30.7c16.8,0,30.4-13.5,30.4-30.4
		C118.6,71.2,105.2,57.6,88.6,57.4z M87.7,112.3c-13.4-0.5-24.2-11.9-23.8-25.1C64.4,74,75.6,63.1,88.5,63.5
		c13.3,0.3,24.2,11.4,24,24.3C112.4,101.5,100.9,112.8,87.7,112.3z"/>
</g>
</svg>
