<?xml version="1.0" encoding="utf-8"?>
<!-- Generator: Adobe Illustrator 18.0.0, SVG Export Plug-In . SVG Version: 6.00 Build 0)  -->
<!DOCTYPE svg PUBLIC "-//W3C//DTD SVG 1.0//EN" "http://www.w3.org/TR/2001/REC-SVG-20010904/DTD/svg10.dtd">
<svg version="1.0" id="Layer_1" xmlns="http://www.w3.org/2000/svg" xmlns:xlink="http://www.w3.org/1999/xlink" x="0px" y="0px"
	 viewBox="0 0 176.2 175.5" enable-background="new 0 0 176.2 175.5" xml:space="preserve">
<g>
	<path d="M88.1,0C35.1,0.1,0.1,40.3,0,87.5c-0.1,48.7,39.6,88.1,88.4,88c48.6-0.1,87.8-39.7,87.8-88.5C175.8,40.5,141-0.1,88.1,0z
		 M88.9,169.4c-46,0.1-82.4-36.3-83-81.9C5.4,46.1,40.4,3.7,88,6c48.6-2.4,82.5,40.7,82.1,80.8C169.7,132.3,133.8,169.3,88.9,169.4z
		"/>
	<path d="M88.8,23.3c-34.6-0.1-61.8,25.4-64.5,60.5c0,0.7,0,1.3,0,2c-0.2,2.1-0.3,4.2-3.2,4.1c-2.7-0.1-3-2.1-3-4.2
		c0.1-7.4,1.4-14.6,3.9-21.5c12.9-35.6,48.8-54.2,85.4-44.5c38.2,10.2,60.9,55.1,46.2,91.6c-11.1,27.5-31.6,42.7-61.1,45.8
		c-0.7,0.1-1.3,0.1-2,0.1c-2.3,0-5.2,0.4-5.3-2.9c-0.1-3.2,2.8-3.2,5.1-3.3c38.7-1.1,70.4-38.4,59.3-81.2
		C142.9,43.7,116.7,23.4,88.8,23.3z"/>
	<path d="M52.3,150.4c-1.7-0.3-3.2-0.9-3.2-3c0-2.3,4.4-8.4,6.1-8.3c1.6,0.1,2.8,0.8,2.9,2.7C58.2,144.2,54.2,150.2,52.3,150.4z"/>
	<path d="M25.9,102.7c2.8-0.2,4.3,1.1,3.9,3.1c-0.9,4.5-5.4,3.5-8.4,4.5c-1.5,0.5-3.7-1-3.3-2.8C19,103.2,23.4,103.9,25.9,102.7z"/>
	<path d="M65.1,153.2c1.3-2.5,0.2-7,5-7.5c2.1-0.2,2.9,1.9,2.4,3.5c-0.9,3.1-0.5,7.5-5.1,8C65.5,157.4,64.8,155.4,65.1,153.2z"/>
	<path d="M36.2,119.5c-0.3,3.7-3.5,3.9-5.4,5.5c-1.4,1.2-3.1,1.4-4.6,0.4c-1.1-0.8-1.8-2.3-0.8-3.5c2.2-2.5,4.7-4.7,8.2-4.7
		C34.9,117.3,35.9,118.5,36.2,119.5z"/>
	<path d="M45.7,132.3c0,2.2-5.4,7.5-7.4,7.3c-1.8-0.1-2.6-1.3-2.6-3c0-2.1,4.7-7.2,6.8-7.2C44.4,129.5,45.5,130.5,45.7,132.3z"/>
	<path d="M112.4,51.7C90.6,60.6,69,69.8,47.3,78.9c-2.5,1.1-4.8,2.6-4.7,5.8c0.1,3.1,2.3,4.7,4.9,5.7c3.2,1.3,6.5,2.7,9.9,3.3
		c4.1,0.8,5.6,3.3,6.5,7c1.1,4.6,2.6,9.2,4.3,13.7c1.8,4.9,4.8,5.5,8.8,2.1c1.9-1.6,3.7-3.3,5.4-5.1c1.5-1.6,2.5-2,4.5-0.2
		c3.2,2.9,6.7,5.4,10.2,8c6.6,4.8,11.8,2.8,13.3-5.1c1.4-7.2,2.7-14.4,4.1-21.5c2.3-11.7,4.6-23.5,6.6-33.9
		C121.5,51.7,118.1,49.3,112.4,51.7z M114.8,60.4c-3.4,17.4-6.9,34.9-10.2,52.3c-0.6,3.1-1.7,3.5-4.2,1.4c-4.1-3.4-8.6-6.2-12.5-9.8
		c-2.8-2.7-4.6-2.1-6.9,0.3c-1.9,2-4.2,3.7-7.3,6.3c1.2-7.5,0.8-13.7,6.8-18.7c8.9-7.4,17-15.7,25.7-23.9c-2.4-1.1-3.6,0.3-4.9,1.1
		c-9.6,5.9-19.3,11.7-28.8,18c-3.8,2.5-7.2,3.4-11.5,1.4c-3.3-1.6-7-2.4-11.8-4c21.9-9.3,42.3-18,62.7-26.7
		C114.6,57,115.3,57.9,114.8,60.4z"/>
</g>
</svg>
