<?xml version="1.0" encoding="utf-8"?>
<!-- Generator: Adobe Illustrator 18.0.0, SVG Export Plug-In . SVG Version: 6.00 Build 0)  -->
<!DOCTYPE svg PUBLIC "-//W3C//DTD SVG 1.0//EN" "http://www.w3.org/TR/2001/REC-SVG-20010904/DTD/svg10.dtd">
<svg version="1.0" id="Layer_1" xmlns="http://www.w3.org/2000/svg" xmlns:xlink="http://www.w3.org/1999/xlink" x="0px" y="0px"
	 viewBox="0 0 176.2 175.5" enable-background="new 0 0 176.2 175.5" xml:space="preserve">
<g>
	<path d="M118.8,7.3C85.3-6.3,43.4,5,21.2,33.5c-23.4,30-25.5,69.1-5.2,100.9c1.2,1.9,1.4,3.5,0.6,5.6c-2.9,8.3-5.7,16.6-8.4,24.9
		c-0.5,1.5-1.2,3.1,0.2,4.4c1.3,1.3,2.8,0.8,4.4,0.2c8.5-2.8,17-5.3,25.4-8.2c2.8-1,5.1-0.6,7.5,0.8c23.8,13.6,48.6,15.4,74,5.4
		c33.1-13,54.4-44.5,54.5-80.9C173.1,50.9,152.1,20.8,118.8,7.3z M148.9,139.8c-16.1,18.4-36.4,27.8-60.6,28.2
		c-13.8,0.2-27-3-39-10.3c-4.2-2.5-8-3.8-13.1-1.6c-6.5,2.8-13.6,4.4-21.3,6.8c2.8-8.4,5.3-15.8,7.8-23.1c0.9-2.5,0.7-4.6-0.9-7
		C1.1,103.1,3.6,62.1,27.7,34.9C53,6.4,92.2-0.9,125.9,16.8C170.8,40.3,182.2,101.8,148.9,139.8z"/>
	<path d="M87,18.7c12-0.1,22.1,2.1,31.7,6.8c1.8,0.9,3.5,1.7,2.7,4.1c-0.9,2.6-2.8,2-4.6,1.2c-9.4-4.1-19.2-6.6-29.5-6.3
		c-4.1,0.1-8,1-12.1,1.7c-2.1,0.3-4.5,0.5-5-2.1c-0.5-2.6,1.6-3.2,3.8-3.6C78.8,19.6,83.5,18.5,87,18.7z"/>
	<path d="M130.3,33.1c1.9-0.1,8.5,6.1,8.2,7.7c-0.5,2.3-2.1,3.2-4.2,2.2c-2.5-1.2-4.7-3.2-6.2-5.5C126.5,35.1,128.2,33.8,130.3,33.1
		z"/>
	<path d="M29.8,100.1c2.2-0.1,3.9,1,3.5,2.9c-0.8,4.1-4.9,3-7.7,3.9c-1.8,0.6-3.8-0.6-3.6-2.6C22.6,99.6,27.2,101.4,29.8,100.1z"/>
	<path d="M46.6,129.5c0.1,2.1-5.3,7.2-7.3,6.9c-1.6-0.2-2.4-1.3-2.5-2.9c-0.1-1.8,5.3-6.6,7.2-6.6C45.8,126.9,46.5,128,46.6,129.5z"
		/>
	<path d="M25.5,90.3c0,0-1.3,0.1-2.4-0.3c-2.2-0.7-3-2.5-1.7-4.3c1.8-2.3,4.6-0.9,7-1c1.6-0.1,3.1,0.6,3.7,2.2
		C33,89.3,31.2,90.5,25.5,90.3z"/>
	<path d="M52.2,147.4c-1.5-0.3-2.8-0.9-2.9-2.9c-0.1-2.2,4.2-7.5,6.1-7.6c1.8-0.1,2.5,1.1,2.7,2.6C58.4,141.6,54.3,147.2,52.2,147.4
		z"/>
	<path d="M35,114.4c2.2,0.2,3.7,1.2,3.2,3c-1.1,3.6-4.6,4.3-7.7,5c-1.6,0.4-3.3-0.8-2.8-2.8C28.6,115.8,32.6,115.9,35,114.4z"/>
	<path d="M131.4,103.7c-3-1.6-6.2-3-9.2-4.5c-11.6-5.7-11.6-5.7-19.8,4.4c-1.6,2-3.1,2.8-5.9,1.6c-10.2-4.5-17.9-11.6-24.2-20.6
		c-1.9-2.7-1.8-4.5,0.8-6.7c4.6-4,5.7-8.6,2.7-14.3c-2.1-3.8-3.4-8-5-12.1c-1.7-4.6-4.5-7.5-9.3-6.7c-6.2-0.3-10.5,2.1-13.7,6.6
		C41.5,60,40.8,69.3,44.3,79c3.4,9.3,9.4,16.9,15.8,24.3c13.3,15.6,29.8,25.8,50.3,28.5c12.5,1.7,23.4-7.1,25.2-19.1
		C136.2,108.6,135.1,105.6,131.4,103.7z M126.5,120.2c-4,4.1-9,6.1-15.7,6.2c-11.7-2-23.2-6.7-33.4-14.4C67,104,58.8,93.9,52.2,82.6
		c-5-8.5-6.4-17.6-0.7-26.7c0.8-1.3,1.8-2.6,3-3.6c4.3-3.7,9.1-2.5,11.3,2.5c1.7,3.9,3.1,7.9,5,11.6c1.4,2.7,0.9,4.5-1.2,6.6
		c-6.3,6.4-6.3,8.3-1.1,15.7c6.6,9.4,14.9,16.8,25.5,21.3c6.5,2.8,9.1,2,13.2-3.6c4.4-6.1,4.4-6.1,11-2.9c2,1,4,1.9,5.9,2.8
		C130.6,109.5,131.6,115,126.5,120.2z"/>
</g>
</svg>
